<svg width="278" height="175" viewBox="0 0 278 175" fill="none" xmlns="http://www.w3.org/2000/svg">
<path d="M37 48.5H275M71.5 172L71.5 8.00004M105.5 172L105.5 8.00004M139.5 172V8.00004M173.5 172V8.00004M208.5 172V8.00004M274.5 172L274.5 8.00004M239.5 172V8.00004M37 91.5H275M37 132.5H275M37 152.5C43.8333 138.833 62.6 105.4 97 97C140 86.5 173 116.5 202 88C231 59.5 223 16.5 274 19M9.88801 13V11.506H6.56701L6.38701 10.993L9.95101 6.65504H10.572V10.912H11.553V11.506H10.572V13H9.88801ZM7.24201 10.912H9.88801V7.66304L7.24201 10.912ZM17.1771 12.163C16.6851 12.793 16.0431 13.108 15.2511 13.108C14.4591 13.108 13.8171 12.796 13.3251 12.172C12.8391 11.542 12.5961 10.768 12.5961 9.85004C12.5961 8.94404 12.8421 8.17604 13.3341 7.54604C13.8321 6.91004 14.4771 6.59204 15.2691 6.59204C16.0611 6.59204 16.7001 6.90704 17.1861 7.53704C17.6721 8.16104 17.9151 8.93204 17.9151 9.85004C17.9151 10.756 17.6691 11.527 17.1771 12.163ZM13.8741 11.695C14.2341 12.205 14.6991 12.46 15.2691 12.46C15.8391 12.46 16.2981 12.208 16.6461 11.704C17.0001 11.194 17.1771 10.576 17.1771 9.85004C17.1771 9.13604 16.9971 8.52404 16.6371 8.01404C16.2831 7.49804 15.8211 7.24004 15.2511 7.24004C14.6811 7.24004 14.2191 7.49504 13.8651 8.00504C13.5111 8.50904 13.3341 9.12404 13.3341 9.85004C13.3341 10.564 13.5141 11.179 13.8741 11.695ZM23.6107 12.163C23.1187 12.793 22.4767 13.108 21.6847 13.108C20.8927 13.108 20.2507 12.796 19.7587 12.172C19.2727 11.542 19.0297 10.768 19.0297 9.85004C19.0297 8.94404 19.2757 8.17604 19.7677 7.54604C20.2657 6.91004 20.9107 6.59204 21.7027 6.59204C22.4947 6.59204 23.1337 6.90704 23.6197 7.53704C24.1057 8.16104 24.3487 8.93204 24.3487 9.85004C24.3487 10.756 24.1027 11.527 23.6107 12.163ZM20.3077 11.695C20.6677 12.205 21.1327 12.46 21.7027 12.46C22.2727 12.46 22.7317 12.208 23.0797 11.704C23.4337 11.194 23.6107 10.576 23.6107 9.85004C23.6107 9.13604 23.4307 8.52404 23.0707 8.01404C22.7167 7.49804 22.2547 7.24004 21.6847 7.24004C21.1147 7.24004 20.6527 7.49504 20.2987 8.00504C19.9447 8.50904 19.7677 9.12404 19.7677 9.85004C19.7677 10.564 19.9477 11.179 20.3077 11.695ZM8.79901 49.108C7.80901 49.108 7.02601 48.733 6.45001 47.983L6.96301 47.524C7.47301 48.148 8.08801 48.46 8.80801 48.46C9.19801 48.46 9.52501 48.346 9.78901 48.118C10.053 47.89 10.185 47.59 10.185 47.218C10.185 46.834 10.023 46.537 9.69901 46.327C9.37501 46.111 8.94901 46.003 8.42101 46.003H8.01601L7.87201 45.58L9.86101 43.339H6.78301V42.7H10.806V43.222L8.82601 45.418C9.42601 45.466 9.92101 45.64 10.311 45.94C10.707 46.234 10.905 46.657 10.905 47.209C10.905 47.761 10.701 48.217 10.293 48.577C9.89101 48.931 9.39301 49.108 8.79901 49.108ZM16.6585 48.163C16.1665 48.793 15.5245 49.108 14.7325 49.108C13.9405 49.108 13.2985 48.796 12.8065 48.172C12.3205 47.542 12.0775 46.768 12.0775 45.85C12.0775 44.944 12.3235 44.176 12.8155 43.546C13.3135 42.91 13.9585 42.592 14.7505 42.592C15.5425 42.592 16.1815 42.907 16.6675 43.537C17.1535 44.161 17.3965 44.932 17.3965 45.85C17.3965 46.756 17.1505 47.527 16.6585 48.163ZM13.3555 47.695C13.7155 48.205 14.1805 48.46 14.7505 48.46C15.3205 48.46 15.7795 48.208 16.1275 47.704C16.4815 47.194 16.6585 46.576 16.6585 45.85C16.6585 45.136 16.4785 44.524 16.1185 44.014C15.7645 43.498 15.3025 43.24 14.7325 43.24C14.1625 43.24 13.7005 43.495 13.3465 44.005C12.9925 44.509 12.8155 45.124 12.8155 45.85C12.8155 46.564 12.9955 47.179 13.3555 47.695ZM23.0921 48.163C22.6001 48.793 21.9581 49.108 21.1661 49.108C20.3741 49.108 19.7321 48.796 19.2401 48.172C18.7541 47.542 18.5111 46.768 18.5111 45.85C18.5111 44.944 18.7571 44.176 19.2491 43.546C19.7471 42.91 20.3921 42.592 21.1841 42.592C21.9761 42.592 22.6151 42.907 23.1011 43.537C23.5871 44.161 23.8301 44.932 23.8301 45.85C23.8301 46.756 23.5841 47.527 23.0921 48.163ZM19.7891 47.695C20.1491 48.205 20.6141 48.46 21.1841 48.46C21.7541 48.46 22.2131 48.208 22.5611 47.704C22.9151 47.194 23.0921 46.576 23.0921 45.85C23.0921 45.136 22.9121 44.524 22.5521 44.014C22.1981 43.498 21.7361 43.24 21.1661 43.24C20.5961 43.24 20.1341 43.495 19.7801 44.005C19.4261 44.509 19.2491 45.124 19.2491 45.85C19.2491 46.564 19.4291 47.179 19.7891 47.695ZM6.43201 92V91.451L8.71801 89.435C9.21001 89.003 9.55201 88.643 9.74401 88.355C9.93601 88.067 10.032 87.767 10.032 87.455C10.032 87.095 9.90901 86.804 9.66301 86.582C9.41701 86.36 9.11701 86.249 8.76301 86.249C8.42101 86.249 8.11801 86.336 7.85401 86.51C7.59601 86.684 7.33501 86.957 7.07101 87.329L6.54901 86.951C6.85501 86.495 7.17901 86.159 7.52101 85.943C7.86301 85.721 8.29501 85.61 8.81701 85.61C9.38101 85.61 9.84601 85.781 10.212 86.123C10.584 86.459 10.77 86.888 10.77 87.41C10.77 87.842 10.653 88.226 10.419 88.562C10.185 88.898 9.77101 89.33 9.17701 89.858L7.49401 91.352H10.833V92H6.43201ZM16.5267 91.163C16.0347 91.793 15.3927 92.108 14.6007 92.108C13.8087 92.108 13.1667 91.796 12.6747 91.172C12.1887 90.542 11.9457 89.768 11.9457 88.85C11.9457 87.944 12.1917 87.176 12.6837 86.546C13.1817 85.91 13.8267 85.592 14.6187 85.592C15.4107 85.592 16.0497 85.907 16.5357 86.537C17.0217 87.161 17.2647 87.932 17.2647 88.85C17.2647 89.756 17.0187 90.527 16.5267 91.163ZM13.2237 90.695C13.5837 91.205 14.0487 91.46 14.6187 91.46C15.1887 91.46 15.6477 91.208 15.9957 90.704C16.3497 90.194 16.5267 89.576 16.5267 88.85C16.5267 88.136 16.3467 87.524 15.9867 87.014C15.6327 86.498 15.1707 86.24 14.6007 86.24C14.0307 86.24 13.5687 86.495 13.2147 87.005C12.8607 87.509 12.6837 88.124 12.6837 88.85C12.6837 89.564 12.8637 90.179 13.2237 90.695ZM22.9603 91.163C22.4683 91.793 21.8263 92.108 21.0343 92.108C20.2423 92.108 19.6003 91.796 19.1083 91.172C18.6223 90.542 18.3793 89.768 18.3793 88.85C18.3793 87.944 18.6253 87.176 19.1173 86.546C19.6153 85.91 20.2603 85.592 21.0523 85.592C21.8443 85.592 22.4833 85.907 22.9693 86.537C23.4553 87.161 23.6983 87.932 23.6983 88.85C23.6983 89.756 23.4523 90.527 22.9603 91.163ZM19.6573 90.695C20.0173 91.205 20.4823 91.46 21.0523 91.46C21.6223 91.46 22.0813 91.208 22.4293 90.704C22.7833 90.194 22.9603 89.576 22.9603 88.85C22.9603 88.136 22.7803 87.524 22.4203 87.014C22.0663 86.498 21.6043 86.24 21.0343 86.24C20.4643 86.24 20.0023 86.495 19.6483 87.005C19.2943 87.509 19.1173 88.124 19.1173 88.85C19.1173 89.564 19.2973 90.179 19.6573 90.695ZM7.61101 132V126.393L6.42301 126.762L6.25201 126.186L7.79101 125.655H8.31301V132H7.61101ZM14.3646 131.163C13.8726 131.793 13.2306 132.108 12.4386 132.108C11.6466 132.108 11.0046 131.796 10.5126 131.172C10.0266 130.542 9.7836 129.768 9.7836 128.85C9.7836 127.944 10.0296 127.176 10.5216 126.546C11.0196 125.91 11.6646 125.592 12.4566 125.592C13.2486 125.592 13.8876 125.907 14.3736 126.537C14.8596 127.161 15.1026 127.932 15.1026 128.85C15.1026 129.756 14.8566 130.527 14.3646 131.163ZM11.0616 130.695C11.4216 131.205 11.8866 131.46 12.4566 131.46C13.0266 131.46 13.4856 131.208 13.8336 130.704C14.1876 130.194 14.3646 129.576 14.3646 128.85C14.3646 128.136 14.1846 127.524 13.8246 127.014C13.4706 126.498 13.0086 126.24 12.4386 126.24C11.8686 126.24 11.4066 126.495 11.0526 127.005C10.6986 127.509 10.5216 128.124 10.5216 128.85C10.5216 129.564 10.7016 130.179 11.0616 130.695ZM20.7982 131.163C20.3062 131.793 19.6642 132.108 18.8722 132.108C18.0802 132.108 17.4382 131.796 16.9462 131.172C16.4602 130.542 16.2172 129.768 16.2172 128.85C16.2172 127.944 16.4632 127.176 16.9552 126.546C17.4532 125.91 18.0982 125.592 18.8902 125.592C19.6822 125.592 20.3212 125.907 20.8072 126.537C21.2932 127.161 21.5362 127.932 21.5362 128.85C21.5362 129.756 21.2902 130.527 20.7982 131.163ZM17.4952 130.695C17.8552 131.205 18.3202 131.46 18.8902 131.46C19.4602 131.46 19.9192 131.208 20.2672 130.704C20.6212 130.194 20.7982 129.576 20.7982 128.85C20.7982 128.136 20.6182 127.524 20.2582 127.014C19.9042 126.498 19.4422 126.24 18.8722 126.24C18.3022 126.24 17.8402 126.495 17.4862 127.005C17.1322 127.509 16.9552 128.124 16.9552 128.85C16.9552 129.564 17.1352 130.179 17.4952 130.695ZM37 8.00004H275V172H37V8.00004Z" stroke="#FFD02C" stroke-width="5"/>
</svg>
